<svg viewBox="0 0 600 350" height="350" width="600" xmlns="http://www.w3.org/2000/svg" style="font-family:&quot;Lucida Grande&quot;, &quot;Lucida Sans Unicode&quot;, Arial, Helvetica, sans-serif;font-size:12px;" class="highcharts-root" version="1.1" xmlns:xlink="http://www.w3.org/1999/xlink"><desc>Created with Highcharts 9.3.0</desc><defs><clipPath id="highcharts-ljjeb2z-65-"><rect fill="none" height="259" width="516" y="0" x="0"></rect></clipPath><clipPath id="highcharts-ljjeb2z-78-"><rect fill="none" height="259" width="516" y="0" x="0"></rect></clipPath></defs><rect ry="0" rx="0" height="350" width="600" y="0" x="0" class="highcharts-background" fill="#ffffff"></rect><rect height="259" width="516" y="10" x="74" class="highcharts-plot-background" fill="none"></rect><g data-z-index="0" class="highcharts-pane-group"></g><g data-z-index="1" class="highcharts-grid highcharts-xaxis-grid"><path opacity="1" d="M 153.5 10 L 153.5 269" class="highcharts-grid-line" data-z-index="1" stroke-dasharray="none" fill="none"></path><path opacity="1" d="M 235.5 10 L 235.5 269" class="highcharts-grid-line" data-z-index="1" stroke-dasharray="none" fill="none"></path><path opacity="1" d="M 317.5 10 L 317.5 269" class="highcharts-grid-line" data-z-index="1" stroke-dasharray="none" fill="none"></path><path opacity="1" d="M 401.5 10 L 401.5 269" class="highcharts-grid-line" data-z-index="1" stroke-dasharray="none" fill="none"></path><path opacity="1" d="M 484.5 10 L 484.5 269" class="highcharts-grid-line" data-z-index="1" stroke-dasharray="none" fill="none"></path><path opacity="1" d="M 566.5 10 L 566.5 269" class="highcharts-grid-line" data-z-index="1" stroke-dasharray="none" fill="none"></path></g><g data-z-index="1" class="highcharts-grid highcharts-yaxis-grid"><path opacity="1" d="M 74 269.5 L 590 269.5" class="highcharts-grid-line" data-z-index="1" stroke-dasharray="none" stroke-width="1" stroke="#e6e6e6" fill="none"></path><path opacity="1" d="M 74 217.5 L 590 217.5" class="highcharts-grid-line" data-z-index="1" stroke-dasharray="none" stroke-width="1" stroke="#e6e6e6" fill="none"></path><path opacity="1" d="M 74 165.5 L 590 165.5" class="highcharts-grid-line" data-z-index="1" stroke-dasharray="none" stroke-width="1" stroke="#e6e6e6" fill="none"></path><path opacity="1" d="M 74 114.5 L 590 114.5" class="highcharts-grid-line" data-z-index="1" stroke-dasharray="none" stroke-width="1" stroke="#e6e6e6" fill="none"></path><path opacity="1" d="M 74 62.5 L 590 62.5" class="highcharts-grid-line" data-z-index="1" stroke-dasharray="none" stroke-width="1" stroke="#e6e6e6" fill="none"></path><path opacity="1" d="M 74 9.5 L 590 9.5" class="highcharts-grid-line" data-z-index="1" stroke-dasharray="none" stroke-width="1" stroke="#e6e6e6" fill="none"></path></g><rect height="259" width="516" y="10" x="74" data-z-index="1" class="highcharts-plot-border" fill="none"></rect><g data-z-index="2" class="highcharts-axis highcharts-xaxis"><path opacity="1" d="M 153.5 269 L 153.5 279" stroke-width="1" stroke="#ccd6eb" class="highcharts-tick" fill="none"></path><path opacity="1" d="M 235.5 269 L 235.5 279" stroke-width="1" stroke="#ccd6eb" class="highcharts-tick" fill="none"></path><path opacity="1" d="M 317.5 269 L 317.5 279" stroke-width="1" stroke="#ccd6eb" class="highcharts-tick" fill="none"></path><path opacity="1" d="M 401.5 269 L 401.5 279" stroke-width="1" stroke="#ccd6eb" class="highcharts-tick" fill="none"></path><path opacity="1" d="M 484.5 269 L 484.5 279" stroke-width="1" stroke="#ccd6eb" class="highcharts-tick" fill="none"></path><path opacity="1" d="M 566.5 269 L 566.5 279" stroke-width="1" stroke="#ccd6eb" class="highcharts-tick" fill="none"></path><path d="M 74 269.5 L 590 269.5" data-z-index="7" stroke-width="1" stroke="#ccd6eb" class="highcharts-axis-line" fill="none"></path></g><g data-z-index="2" class="highcharts-axis highcharts-yaxis"><text y="139.5" style="color:#666666;font-size:12px;fill:#666666;" class="highcharts-axis-title" transform="translate(0,0) rotate(270 26.0888671875 139.5)" text-anchor="middle" data-z-index="7" x="26.0888671875">ACCURACY (%)</text><path d="M 74 10 L 74 269" data-z-index="7" class="highcharts-axis-line" fill="none"></path></g><g data-z-index="3" class="highcharts-series-group"><g clip-path="url(#highcharts-ljjeb2z-78-)" transform="translate(74,10) scale(1 1)" opacity="1" data-z-index="1" class="highcharts-series highcharts-series-0 highcharts-scatter-series"></g><g clip-path="none" transform="translate(74,10) scale(1 1)" opacity="1" data-z-index="1" class="highcharts-markers highcharts-series-0 highcharts-scatter-series"><path class="highcharts-point tag-0" opacity="1" d="M 20 113 A 4 4 0 1 1 20.003999999333335 112.99999800000016 Z" fill="#ddd"></path><path class="highcharts-point tag-0" opacity="1" d="M 20 199 A 4 4 0 1 1 20.003999999333335 198.99999800000018 Z" fill="#ddd"></path><path class="highcharts-point tag-0" opacity="1" d="M 20 200 A 4 4 0 1 1 20.003999999333335 199.99999800000018 Z" fill="#ddd"></path><path class="highcharts-point tag-0" opacity="1" d="M 225 152 A 4 4 0 1 1 225.00399999933333 151.99999800000018 Z" fill="#ddd"></path><path class="highcharts-point tag-0" opacity="1" d="M 351 124 A 4 4 0 1 1 351.00399999933336 123.99999800000016 Z" fill="#ddd"></path><path class="highcharts-point tag-0" opacity="1" d="M 376 200 A 4 4 0 1 1 376.00399999933336 199.99999800000018 Z" fill="#ddd"></path><path class="highcharts-point tag-0" opacity="1" d="M 407 70 A 4 4 0 1 1 407.00399999933336 69.99999800000016 Z" fill="#ddd"></path><path class="highcharts-point tag-0" opacity="1" d="M 444 56 A 4 4 0 1 1 444.00399999933336 55.99999800000017 Z" fill="#ddd"></path><path class="highcharts-point tag-0" opacity="1" d="M 444 56 A 4 4 0 1 1 444.00399999933336 55.99999800000017 Z" fill="#ddd"></path><path class="highcharts-point tag-0" opacity="1" d="M 456 43 A 4 4 0 1 1 456.00399999933336 42.99999800000017 Z" fill="#ddd"></path><path class="highcharts-point tag-0" opacity="1" d="M 476 43 A 4 4 0 1 1 476.00399999933336 42.99999800000017 Z" fill="#ddd"></path><path class="highcharts-point tag-0" opacity="1" d="M 495 50 A 4 4 0 1 1 495.00399999933336 49.99999800000017 Z" fill="#ddd"></path></g><g clip-path="url(#highcharts-ljjeb2z-78-)" transform="translate(74,10) scale(1 1)" opacity="1" data-z-index="2" class="highcharts-series highcharts-series-3 highcharts-line-series"><path stroke-linecap="round" stroke-linejoin="round" stroke-width="2" stroke="#21ccc7" data-z-index="1" class="highcharts-graph" d="M 20.286671552717 96.55519999999999 L 376.85666422364 55.32239999999999 L 407.92147419118 36.32216 L 456.54465500995 35.22399999999999 L 495.71332844728 28.303519999999992" fill="none"></path></g><g clip-path="none" transform="translate(74,10) scale(1 1)" opacity="1" data-z-index="2" class="highcharts-markers highcharts-series-3 highcharts-line-series"><path class="highcharts-point tag-0" opacity="1" d="M 20 101 A 4 4 0 1 1 20.003999999333335 100.99999800000016 Z" fill="#21ccc7"></path><path class="highcharts-point tag-0" opacity="1" d="M 376 59 A 4 4 0 1 1 376.00399999933336 58.99999800000017 Z" fill="#21ccc7"></path><path class="highcharts-point tag-0" opacity="1" d="M 407 40 A 4 4 0 1 1 407.00399999933336 39.99999800000017 Z" fill="#21ccc7"></path><path class="highcharts-point tag-0" opacity="1" d="M 456 39 A 4 4 0 1 1 456.00399999933336 38.99999800000017 Z" fill="#21ccc7"></path><path class="highcharts-point tag-0" opacity="1" d="M 495 32 A 4 4 0 1 1 495.00399999933336 31.99999800000017 Z" fill="#21ccc7"></path></g><g clip-path="url(#highcharts-ljjeb2z-78-)" transform="translate(74,10) scale(1 1)" opacity="1" data-z-index="3" class="highcharts-series highcharts-series-1 highcharts-errorbar-series"></g><g clip-path="none" transform="translate(74,10) scale(1 1)" opacity="1" data-z-index="3" class="highcharts-markers highcharts-series-1 highcharts-errorbar-series"></g><g clip-path="url(#highcharts-ljjeb2z-78-)" transform="translate(74,10) scale(1 1)" opacity="1" data-z-index="3" class="highcharts-series highcharts-series-2 highcharts-errorbar-series"></g><g clip-path="none" transform="translate(74,10) scale(1 1)" opacity="1" data-z-index="3" class="highcharts-markers highcharts-series-2 highcharts-errorbar-series"></g></g><g transform="translate(74,10) scale(1 1)" opacity="1" data-z-index="3" class="highcharts-data-labels highcharts-series-3 highcharts-line-series"><g transform="translate(-5,74)" data-z-index="1" class="highcharts-label highcharts-data-label highcharts-data-label-color-undefined"><text style="color:#4a4a4a;font-size:11px;font-weight:normal;fill:#4a4a4a;" y="16" data-z-index="1" x="5"><tspan style="" stroke-linejoin="round" stroke-width="2px" stroke="#FFFFFF" fill="#FFFFFF" class="highcharts-text-outline">SeeClick<tspan y="16" x="5">​</tspan></tspan>SeeClick</text></g><g transform="translate(338,32)" data-z-index="1" class="highcharts-label highcharts-data-label highcharts-data-label-color-undefined"><text style="color:#4a4a4a;font-size:11px;font-weight:normal;fill:#4a4a4a;" y="16" data-z-index="1" x="5"><tspan style="" stroke-linejoin="round" stroke-width="2px" stroke="#FFFFFF" fill="#FFFFFF" class="highcharts-text-outline">UGround-V1<tspan y="16" x="5">​</tspan></tspan>UGround-V1</text></g><g transform="translate(354,13)" data-z-index="1" class="highcharts-label highcharts-data-label highcharts-data-label-color-undefined"><text style="color:#4a4a4a;font-size:11px;font-weight:normal;fill:#4a4a4a;" y="16" data-z-index="1" x="5"><tspan style="" stroke-linejoin="round" stroke-width="2px" stroke="#FFFFFF" fill="#FFFFFF" class="highcharts-text-outline">OS-Atlas-Base-7B<tspan y="16" x="5">​</tspan></tspan>OS-Atlas-Base-7B</text></g><g style="pointer-events:none;" opacity="0" transform="translate(423,12)" data-z-index="1" class="highcharts-label highcharts-data-label highcharts-data-label-color-undefined highcharts-data-label-hidden"><text style="color:#4a4a4a;font-size:11px;font-weight:normal;fill:#4a4a4a;" y="16" data-z-index="1" x="5"><tspan style="" stroke-linejoin="round" stroke-width="2px" stroke="#FFFFFF" fill="#FFFFFF" class="highcharts-text-outline">Aguvis-7B<tspan y="16" x="5">​</tspan></tspan>Aguvis-7B</text></g><g style="pointer-events:none;" opacity="0" transform="translate(422,5)" data-z-index="1" class="highcharts-label highcharts-data-label highcharts-data-label-color-undefined highcharts-data-label-hidden"><text style="color:#4a4a4a;font-size:11px;font-weight:normal;fill:#4a4a4a;" y="16" data-z-index="1" x="5"><tspan style="" stroke-linejoin="round" stroke-width="2px" stroke="#FFFFFF" fill="#FFFFFF" class="highcharts-text-outline">UGround-V1-7B<tspan y="16" x="5">​</tspan></tspan>UGround-V1-7B</text></g></g><text y="24" style="color:#333333;font-size:18px;fill:#333333;" data-z-index="4" class="highcharts-title" text-anchor="middle" x="300"></text><text y="24" style="color:#666666;fill:#666666;" data-z-index="4" class="highcharts-subtitle" text-anchor="middle" x="300"></text><text y="347" style="color:#666666;fill:#666666;" data-z-index="4" class="highcharts-caption" text-anchor="start" x="10"></text><g transform="translate(74,10) scale(1 1)" opacity="1" data-z-index="6" class="highcharts-data-labels highcharts-series-1 highcharts-errorbar-series"></g><g transform="translate(74,10) scale(1 1)" opacity="1" data-z-index="6" class="highcharts-data-labels highcharts-series-2 highcharts-errorbar-series"></g><g transform="translate(103,303)" data-z-index="7" class="highcharts-legend highcharts-no-tooltip"><rect visibility="visible" height="32" width="394" y="0" x="0" ry="0" rx="0" class="highcharts-legend-box" fill="#ffffff"></rect><g data-z-index="1"><g><g transform="translate(8,3)" data-z-index="1" class="highcharts-legend-item highcharts-scatter-series highcharts-color-undefined highcharts-series-0"><path class="highcharts-graph" d="M 0 13 L 16 13" fill="none"></path><path opacity="1" class="highcharts-point" d="M 8 17 A 4 4 0 1 1 8.003999999333336 16.99999800000017 Z" fill="#ddd"></path><text y="17" data-z-index="2" text-anchor="start" style="color:#414141;cursor:pointer;font-size:14px;font-weight:normal;fill:#414141;" x="21">Other models</text></g><g transform="translate(141.234375,3)" data-z-index="1" class="highcharts-legend-item highcharts-line-series highcharts-color-undefined highcharts-series-3"><path stroke-width="2" stroke="#21ccc7" class="highcharts-graph" d="M 0 13 L 16 13" fill="none"></path><path opacity="1" class="highcharts-point" d="M 8 17 A 4 4 0 1 1 8.003999999333336 16.99999800000017 Z" fill="#21ccc7"></path><text data-z-index="2" text-anchor="start" style="color:#414141;cursor:pointer;font-size:14px;font-weight:normal;fill:#414141;" y="17" x="21">Models with highest Accuracy (%)</text></g></g></g></g><g data-z-index="7" class="highcharts-axis-labels highcharts-xaxis-labels"><text opacity="1" y="288" transform="translate(0,0)" text-anchor="middle" style="color:#666666;cursor:default;font-size:11px;fill:#666666;" x="153.71500366454">Mar '24</text><text opacity="1" y="288" transform="translate(0,0)" text-anchor="middle" style="color:#666666;cursor:default;font-size:11px;fill:#666666;" x="236.10428227411">May '24</text><text opacity="1" y="288" transform="translate(0,0)" text-anchor="middle" style="color:#666666;cursor:default;font-size:11px;fill:#666666;" x="318.49356088368">Jul '24</text><text opacity="1" y="288" transform="translate(0,0)" text-anchor="middle" style="color:#666666;cursor:default;font-size:11px;fill:#666666;" x="402.23348340488">Sep '24</text><text opacity="1" y="288" transform="translate(0,0)" text-anchor="middle" style="color:#666666;cursor:default;font-size:11px;fill:#666666;" x="484.62276201445">Nov '24</text><text opacity="1" y="288" transform="translate(0,0)" text-anchor="middle" style="color:#666666;cursor:default;font-size:11px;fill:#666666;" x="567.01204062402">Jan '25</text></g><g data-z-index="7" class="highcharts-axis-labels highcharts-yaxis-labels"><text opacity="1" y="273" transform="translate(0,0)" text-anchor="end" style="color:#666666;cursor:default;font-size:11px;fill:#666666;" x="59">-25</text><text opacity="1" y="221" transform="translate(0,0)" text-anchor="end" style="color:#666666;cursor:default;font-size:11px;fill:#666666;" x="59">0</text><text opacity="1" y="169" transform="translate(0,0)" text-anchor="end" style="color:#666666;cursor:default;font-size:11px;fill:#666666;" x="59">25</text><text opacity="1" y="118" transform="translate(0,0)" text-anchor="end" style="color:#666666;cursor:default;font-size:11px;fill:#666666;" x="59">50</text><text opacity="1" y="66" transform="translate(0,0)" text-anchor="end" style="color:#666666;cursor:default;font-size:11px;fill:#666666;" x="59">75</text><text opacity="1" y="14" transform="translate(0,0)" text-anchor="end" style="color:#666666;cursor:default;font-size:11px;fill:#666666;" x="59">100</text></g></svg>